:FULLY-SPECIFIED
:FORCE-ALL-JOINTS-BE-3DOF
:DEGREES
816
root -4.28285 14.71 -40.3589 394.296 -74.9327 334.44
lfemur -68.5945 16.2759 -24.4391
ltibia 82.5404 0 0
lfoot -1.74342 10.862 0
ltoes -22.9754 0 0
rfemur -31.2471 -6.28904 22.9038
rtibia 69.1965 0 0
rfoot -28.8699 -27.7835 0
rtoes -24.0817 0 0
lowerback 18.6818 1.0569 3.88683
upperback 0.692199 2.43632 3.23556
thorax -9.73297 1.01338 0.680001
lowerneck -2.34904 12.7921 3.74269
upperneck -1.59064 17.0358 -9.82482
head 1.16155 8.47604 -3.32071
lclavicle -5.91565e-15 -1.84634e-14 0
lhumerus 98.692 -32.7071 21.3234
lradius 87.3662 0 0
lwrist 22.921 0 0
lhand -2.10365 20.985 0
lfingers 7.12502 0 0
lthumb 18.3764 55.7371 0
rclavicle 6.56263e-15 -1.67925e-14 0
rhumerus 25.5986 36.1421 -56.2369
rradius 65.056 0 0
rwrist -11.3353 0 0
rhand -16.1084 -41.751 0
rfingers 7.12502 0 0
rthumb 12.8999 -71.5006 0
817
root -4.14739 14.7229 -40.3834 392.027 -74.3767 336.921
lfemur -67.8092 16.6823 -23.2478
ltibia 83.0349 0 0
lfoot -1.75291 11.0638 0
ltoes -22.3724 0 0
rfemur -32.1167 -7.45135 22.9789
rtibia 69.4545 0 0
rfoot -29.1478 -27.5341 0
rtoes -24.0034 0 0
lowerback 18.6255 1.05804 3.69067
upperback 0.603956 2.39429 3.12691
thorax -9.80266 1.00147 0.683967
lowerneck -2.12521 12.7933 4.04046
upperneck -1.75224 17.0299 -10.1705
head 1.13498 8.48043 -3.50179
lclavicle -1.70673e-15 -1.55172e-14 0
lhumerus 98.3566 -32.8098 21.3342
lradius 89.1827 0 0
lwrist 22.9855 0 0
lhand -2.33041 21.1271 0
lfingers 7.12502 0 0
lthumb 17.5307 56.2441 0
rclavicle 7.79666e-15 -1.75697e-14 0
rhumerus 26.2345 36.4638 -56.0929
rradius 65.5928 0 0
rwrist -10.291 0 0
rhand -16.169 -41.444 0
rfingers 7.12502 0 0
rthumb 12.6319 -71.5572 0
818
root -4.01894 14.7402 -40.4004 390.069 -73.9321 339.063
lfemur -66.934 17.135 -21.9203
ltibia 83.2057 0 0
lfoot -1.7623 11.2635 0
ltoes -21.5671 0 0
rfemur -32.8971 -8.49435 23.0463
rtibia 69.715 0 0
rfoot -29.4191 -27.2906 0
rtoes -23.9172 0 0
lowerback 18.5004 0.991298 3.3944
upperback 0.595062 2.23409 3.05112
thorax -9.75189 0.940477 0.812816
lowerneck -2.17975 12.9299 3.99244
upperneck -1.76273 17.2152 -10.3351
head 1.16764 8.57113 -3.53319
lclavicle 2.60071e-15 -1.2502e-14 0
lhumerus 97.821 -32.9738 21.3516
lradius 91.0899 0 0
lwrist 23.0493 0 0
lhand -2.61058 21.3027 0
lfingers 7.12502 0 0
lthumb 16.699 56.7427 0
rclavicle 9.06135e-15 -1.83662e-14 0
rhumerus 26.4542 36.5749 -56.0431
rradius 66.1909 0 0
rwrist -9.30338 0 0
rhand -16.2284 -41.143 0
rfingers 7.12502 0 0
rthumb 12.5389 -71.5769 0
819
root -3.89351 14.7591 -40.4176 388.269 -73.3753 341.062
lfemur -65.9854 17.6258 -20.4812
ltibia 83.0856 0 0
lfoot -1.77149 11.4591 0
ltoes -20.582 0 0
rfemur -33.5719 -9.39636 23.1047
rtibia 69.973 0 0
rfoot -29.6804 -27.0561 0
rtoes -23.8252 0 0
lowerback 18.3635 0.884077 3.07114
upperback 0.559063 2.02232 3.03753
thorax -9.72692 0.857189 1.03849
lowerneck -2.41447 13.1137 3.7429
upperneck -1.53685 17.4792 -10.2564
head 1.26847 8.69224 -3.42734
lclavicle 6.94099e-15 -9.4638e-15 0
lhumerus 97.1042 -33.1932 21.3749
lradius 93.0619 0 0
lwrist 23.1119 0 0
lhand -2.93906 21.5085 0
lfingers 7.12502 0 0
lthumb 15.8953 57.2245 0
rclavicle 1.03445e-14 -1.91743e-14 0
rhumerus 26.6132 36.7551 -55.819
rradius 66.8392 0 0
rwrist -8.38484 0 0
rhand -16.2859 -40.8518 0
rfingers 7.12502 0 0
rthumb 12.66 -71.4391 0
820
root -3.77527 14.776 -40.4307 386.453 -72.8675 342.986
lfemur -64.9796 18.1462 -18.9555
ltibia 82.7369 0 0
lfoot -1.7804 11.6486 0
ltoes -19.4396 0 0
rfemur -34.1251 -10.1357 23.1524
rtibia 70.224 0 0
rfoot -29.9283 -26.8336 0
rtoes -23.7292 0 0
lowerback 18.2522 0.885413 3.26605
upperback 0.490623 2.02441 2.54879
thorax -9.71323 0.840823 0.394933
lowerneck -2.17725 12.9692 4.27036
upperneck -1.64931 17.2716 -10.2103
head 1.222 8.59733 -3.52939
lclavicle 1.12484e-14 -6.4486e-15 0
lhumerus 96.2253 -33.4623 21.4034
lradius 95.0728 0 0
lwrist 23.1724 0 0
lhand -3.31078 21.7415 0
lfingers 7.12502 0 0
lthumb 15.1337 57.6811 0
rclavicle 1.16337e-14 -1.99863e-14 0
rhumerus 27.0695 37.2722 -55.1762
rradius 67.5266 0 0
rwrist -7.54799 0 0
rhand -16.3407 -40.5745 0
rfingers 7.12502 0 0
rthumb 13.0094 -71.0415 0
821
root -3.66157 14.7792 -40.4415 384.902 -72.3114 344.638
lfemur -63.9329 18.6877 -17.3678
ltibia 82.1772 0 0
lfoot -1.78892 11.8297 0
ltoes -18.1624 0 0
rfemur -34.5403 -10.6906 23.1883
rtibia 70.4631 0 0
rfoot -30.1595 -26.626 0
rtoes -23.6312 0 0
lowerback 18.3645 0.386855 4.72491
upperback 0.315096 1.56706 1.18217
thorax -9.8966 0.520432 -1.80598
lowerneck -2.18488 13.0674 5.22711
upperneck -1.63087 17.3761 -9.35259
head 1.23752 8.65083 -3.39655
lclavicle 1.54573e-14 -3.50236e-15 0
lhumerus 95.2033 -33.7752 21.4366
lradius 97.0966 0 0
lwrist 23.2303 0 0
lhand -3.72065 21.9984 0
lfingers 7.12502 0 0
lthumb 14.4282 58.1041 0
rclavicle 1.29168e-14 -2.07944e-14 0
rhumerus 27.7917 38.0907 -54.1586
rradius 68.242 0 0
rwrist -6.8054 0 0
rhand -16.3919 -40.315 0
rfingers 7.12502 0 0
rthumb 13.5664 -70.4076 0
822
root -3.55096 14.8077 -40.4512 383.904 -71.7614 345.654
lfemur -62.8618 19.2419 -15.743
ltibia 81.4241 0 0
lfoot -1.79695 12.0006 0
ltoes -16.7728 0 0
rfemur -34.8013 -11.0395 23.2109
rtibia 70.6857 0 0
rfoot -30.3707 -26.4364 0
rtoes -23.5333 0 0
lowerback 18.3057 0.399199 4.47946
upperback 0.266515 1.53442 1.19925
thorax -9.92616 0.517131 -1.63907
lowerneck -2.19703 13.1186 5.12933
upperneck -1.39431 17.4598 -9.24841
head 1.3024 8.68943 -3.33304
lclavicle 1.95021e-14 -6.71051e-16 0
lhumerus 94.0574 -34.126 21.4738
lradius 99.1075 0 0
lwrist 23.285 0 0
lhand -4.16357 22.276 0
lfingers 7.12502 0 0
lthumb 13.7927 58.4851 0
rclavicle 1.41815e-14 -2.15909e-14 0
rhumerus 28.7486 39.1751 -52.8104
rradius 68.974 0 0
rwrist -6.16965 0 0
rhand -16.4389 -40.0773 0
rfingers 7.12502 0 0
rthumb 14.3103 -69.5612 0
823
root -3.44487 14.8291 -40.4547 382.977 -71.1712 346.593
lfemur -61.7824 19.8003 -14.1057
ltibia 80.4953 0 0
lfoot -1.8044 12.159 0
ltoes -15.2933 0 0
rfemur -34.8919 -11.1606 23.2187
rtibia 70.8871 0 0
rfoot -30.5586 -26.2678 0
rtoes -23.4373 0 0
lowerback 18.12 1.26021 3.18359
upperback 0.162983 2.46504 1.89471
thorax -9.96737 1.03897 -0.38617
lowerneck -1.99271 12.511 5.64096
upperneck -0.958507 16.6878 -10.0369
head 1.48471 8.2966 -3.71696
lclavicle 2.33169e-14 1.99934e-15 0
lhumerus 92.8065 -34.509 21.5144
lradius 101.079 0 0
lwrist 23.3356 0 0
lhand -4.63447 22.5711 0
lfingers 7.12502 0 0
lthumb 13.2414 58.8156 0
rclavicle 1.54155e-14 -2.23681e-14 0
rhumerus 29.9089 40.49 -51.1757
rradius 69.7117 0 0
rwrist -5.65329 0 0
rhand -16.4807 -39.8652 0
rfingers 7.12502 0 0
rthumb 15.2202 -68.5257 0
824
root -3.34382 14.8465 -40.4555 382.087 -70.605 347.473
lfemur -60.7113 20.3545 -12.4809
ltibia 79.4082 0 0
lfoot -1.81117 12.3031 0
ltoes -13.7464 0 0
rfemur -34.8686 -11.2025 23.1769
rtibia 71.0624 0 0
rfoot -30.7198 -26.1231 0
rtoes -23.3453 0 0
lowerback 18.0472 1.24507 2.97851
upperback 0.101762 2.40391 1.88824
thorax -10.0039 1.02047 -0.260176
lowerneck -2.01265 12.525 5.63868
upperneck -0.727495 16.7194 -9.91606
head 1.5539 8.30866 -3.66563
lclavicle 2.68362e-14 4.46284e-15 0
lhumerus 91.4699 -34.9182 21.5578
lradius 102.987 0 0
lwrist 23.3817 0 0
lhand -5.12826 22.8806 0
lfingers 7.12502 0 0
lthumb 12.7882 59.0873 0
rclavicle 1.66066e-14 -2.31182e-14 0
rhumerus 31.2412 41.9999 -49.2986
rradius 70.4437 0 0
rwrist -5.26891 0 0
rhand -16.5167 -39.6829 0
rfingers 7.12502 0 0
rthumb 16.2754 -67.325 0
825
root -3.24692 14.8623 -40.4504 381.209 -70.0515 348.274
lfemur -59.6646 20.896 -10.8932
ltibia 78.1804 0 0
lfoot -1.81717 12.4306 0
ltoes -12.1546 0 0
rfemur -34.8017 -11.3225 23.0574
rtibia 71.207 0 0
rfoot -30.851 -26.0054 0
rtoes -23.2591 0 0
lowerback 18.0322 1.19034 2.84871
upperback 0.0360933 2.30602 1.85513
thorax -10.0741 0.979448 -0.197589
lowerneck -2.00102 12.5356 5.6227
upperneck -0.508851 16.7459 -9.78411
head 1.61058 8.31928 -3.61161
lclavicle 2.99943e-14 6.67348e-15 0
lhumerus 90.0664 -35.3479 21.6033
lradius 104.803 0 0
lwrist 23.4224 0 0
lhand -5.63985 23.2012 0
lfingers 7.12502 0 0
lthumb 12.4471 59.2918 0
rclavicle 1.77425e-14 -2.38336e-14 0
rhumerus 32.7143 43.6693 -47.223
rradius 71.1591 0 0
rwrist -5.02906 0 0
rhand -16.5461 -39.5342 0
rfingers 7.12502 0 0
rthumb 17.4552 -65.9825 0
826
root -3.151 14.8778 -40.4449 380.533 -69.4565 348.872
lfemur -58.6588 21.4164 -9.36745
ltibia 76.8296 0 0
lfoot -1.82229 12.5396 0
ltoes -10.5403 0 0
rfemur -34.6963 -11.5118 22.8687
rtibia 71.3161 0 0
rfoot -30.9488 -25.9175 0
rtoes -23.1808 0 0
lowerback 18.022 1.19643 2.67467
upperback -0.0403435 2.28798 1.90789
thorax -10.1629 0.980534 -0.0371849
lowerneck -2.07832 12.4938 5.48027
upperneck -0.175818 16.7069 -9.58403
head 1.69583 8.29331 -3.50893
lclavicle 3.27254e-14 8.58529e-15 0
lhumerus 88.6153 -35.7922 21.6504
lradius 106.503 0 0
lwrist 23.4573 0 0
lhand -6.16416 23.5298 0
lfingers 7.12502 0 0
lthumb 12.2322 59.4207 0
rclavicle 1.88109e-14 -2.45064e-14 0
rhumerus 34.297 45.4629 -44.9932
rradius 71.8465 0 0
rwrist -4.94632 0 0
rhand -16.568 -39.423 0
rfingers 7.12502 0 0
rthumb 18.7388 -64.5218 0
